<svg xmlns="http://www.w3.org/2000/svg" viewBox="0 0 20 20"><g stroke="none" fill="#000000" stroke-width="1px">
<path d="M10.0268 7.29245C9.33133 7.29245 8.76184 6.72296 8.76184 6.02748V1.26497C8.76184 0.569486 9.33133 0 10.0268 0C10.7223 0 11.2918 0.569486 11.2918 1.26497V6.02748C11.2918 6.72296 10.7223 7.29245 10.0268 7.29245Z" fill="#000000" stroke="none" stroke-width="1px"></path>
<path d="M12.9951 9.4973C12.7809 8.83458 13.1513 8.11642 13.8141 7.90475L18.3472 6.44827C19.0099 6.23408 19.7281 6.6045 19.9397 7.26723C20.1539 7.92995 19.7835 8.64811 19.1208 8.85978L14.5876 10.3163C13.9249 10.5279 13.2093 10.16 12.9951 9.4973Z" fill="#000000" stroke="none" stroke-width="1px"></path>
<path d="M7.00548 9.4973C7.21966 8.83458 6.84925 8.11642 6.18653 7.90475L1.65333 6.44827C0.990611 6.23408 0.272455 6.6045 0.0607882 7.26723C-0.153398 7.92995 0.217019 8.64811 0.879737 8.85978L5.41294 10.3163C6.07565 10.5279 6.79381 10.16 7.00548 9.4973Z" fill="#000000" stroke="none" stroke-width="1px"></path>
<path d="M8.19226 13.0553C7.62781 12.6496 6.83155 12.7781 6.42585 13.3451L3.64395 17.2105C3.23826 17.7749 3.36677 18.5712 3.93373 18.9769C4.49818 19.3826 5.29444 19.2541 5.70014 18.6871L8.47952 14.8217C8.88521 14.2572 8.7567 13.4635 8.19226 13.0553Z" fill="#000000" stroke="none" stroke-width="1px"></path>
<path d="M11.894 13.0553C12.4584 12.6496 13.2547 12.7781 13.6604 13.3451L16.4398 17.2105C16.8455 17.7749 16.717 18.5712 16.15 18.9769C15.5856 19.3826 14.7893 19.2541 14.3836 18.6871L11.6067 14.8242C11.1985 14.2572 11.3296 13.4635 11.894 13.0553Z" fill="#000000" stroke="none" stroke-width="1px"></path>
</g></svg>