<svg xmlns="http://www.w3.org/2000/svg" viewBox="0 0 20 20"><g stroke="none" fill="#000000" stroke-width="1px">
<path d="M10 0C4.47654 0 0 4.47654 0 10C0 10.1432 0.00246914 10.2864 0.00987654 10.4272L0.0123457 10.4198C2.62716 6.04938 6.04691 5.28889 6.18025 5.25926C6.17531 5.19753 6.17284 5.1358 6.17284 5.07407C6.17284 3.85432 7.16296 2.8642 8.38272 2.8642C9.60247 2.8642 10.5926 3.85432 10.5926 5.07407C10.5926 6.29383 9.60247 7.28395 8.38272 7.28395C7.7037 7.28395 7.09383 6.97778 6.68889 6.49383L6.69877 6.51852C2.78765 9.00741 1.71605 14.6395 1.80988 15.7383C2.25432 16.3704 2.7679 16.9481 3.34321 17.4617L3.35802 17.4395C6.93333 10.4025 12.8519 9.19753 13.1605 9.14074C13.1605 9.12593 13.1605 9.11358 13.1605 9.09877C13.1605 7.87901 14.1506 6.88889 15.3704 6.88889C16.5901 6.88889 17.5802 7.87901 17.5802 9.09877C17.5802 10.3185 16.5901 11.3086 15.3704 11.3086C14.684 11.3086 14.0716 10.9975 13.6667 10.5062C8.15556 13.0691 6.94568 18.3926 6.96296 19.4815C6.96296 19.4988 6.96296 19.5136 6.96049 19.5309C7.91852 19.837 8.94074 20 10 20C15.5235 20 20 15.5235 20 10C20 4.47654 15.5235 0 10 0Z" fill="#000000" stroke="none" stroke-width="1px"></path>
</g></svg>