<svg xmlns="http://www.w3.org/2000/svg" viewBox="0 0 20 20"><g stroke="none" fill="#000000" stroke-width="1px">
<path d="M14.3159 0.977242C13.6278 1.09772 11.3387 1.74565 11.0281 5.08701C13.5877 5.41633 15.5663 7.60375 15.5663 10.2517C15.5663 12.2383 14.4552 13.9625 12.822 14.8407C12.0161 15.3119 11.071 15.5823 10.0616 15.5823C7.30924 15.5823 5.03882 13.5663 4.72557 10.9665L4.71218 10.9772C3.73762 4.92637 8.77644 0.672021 14.2222 0.931727C12.9398 0.334672 11.51 0 10 0C4.47657 0 0 4.47657 0 10C0 15.5234 4.47657 20 10 20C15.5234 20 20 15.5234 20 10C20 6.02142 17.6787 2.58635 14.3159 0.977242Z" fill="#000000" stroke="none" stroke-width="1px"></path>
</g></svg>