<svg xmlns="http://www.w3.org/2000/svg" viewBox="0 0 20 20"><g stroke="none" fill="#000000" stroke-width="1px">
<path d="M3.73458 20H1.388C0.626124 20 0 19.3784 0 18.6158V1.38417C0 0.624396 0.626124 0 1.388 0H3.73458C4.49922 0 5.12258 0.624396 5.12258 1.38417V18.6158C5.12258 19.3784 4.49922 20 3.73458 20Z" fill="#000000" stroke="none" stroke-width="1px"></path>
<path d="M17.911 0.5802H7.1256C6.69063 0.5802 6.34155 0.931077 6.34155 1.36208V18.8037C6.34155 19.2375 6.6934 19.5856 7.1256 19.5856H17.911C19.0663 19.5856 20 18.6518 20 17.5024V2.66336C20 1.51403 19.0636 0.5802 17.911 0.5802ZM8.17284 3.9978C8.17284 3.73533 8.38893 3.51983 8.65213 3.51983H17.2267C17.4899 3.51983 17.706 3.73533 17.706 3.9978V6.83797C17.706 7.10044 17.4899 7.31594 17.2267 7.31594H8.65213C8.38893 7.31594 8.17284 7.10044 8.17284 6.83797V3.9978ZM10.4502 16.0906C10.4502 16.4222 10.1787 16.6957 9.84343 16.6957H8.7768C8.44434 16.6957 8.17006 16.4249 8.17006 16.0906V15.9691C8.17006 15.6375 8.44157 15.364 8.7768 15.364H9.84343C10.1759 15.364 10.4502 15.6348 10.4502 15.9691V16.0906ZM10.4502 13.0239C10.4502 13.3554 10.1787 13.629 9.84343 13.629H8.7768C8.44434 13.629 8.17006 13.3582 8.17006 13.0239V12.9023C8.17006 12.5708 8.44157 12.2973 8.7768 12.2973H9.84343C10.1759 12.2973 10.4502 12.568 10.4502 12.9023V13.0239ZM10.4502 9.95719C10.4502 10.2887 10.1787 10.5622 9.84343 10.5622H8.7768C8.44434 10.5622 8.17006 10.2915 8.17006 9.95719V9.83562C8.17006 9.50408 8.44157 9.23057 8.7768 9.23057H9.84343C10.1759 9.23057 10.4502 9.50132 10.4502 9.83562V9.95719ZM14.0795 16.0906C14.0795 16.4222 13.808 16.6957 13.4727 16.6957H12.4061C12.0737 16.6957 11.7994 16.4249 11.7994 16.0906V15.9691C11.7994 15.6375 12.0709 15.364 12.4061 15.364H13.4727C13.8052 15.364 14.0795 15.6348 14.0795 15.9691V16.0906ZM14.0795 13.0239C14.0795 13.3554 13.808 13.629 13.4727 13.629H12.4061C12.0737 13.629 11.7994 13.3582 11.7994 13.0239V12.9023C11.7994 12.5708 12.0709 12.2973 12.4061 12.2973H13.4727C13.8052 12.2973 14.0795 12.568 14.0795 12.9023V13.0239ZM14.0795 9.95719C14.0795 10.2887 13.808 10.5622 13.4727 10.5622H12.4061C12.0737 10.5622 11.7994 10.2915 11.7994 9.95719V9.83562C11.7994 9.50408 12.0709 9.23057 12.4061 9.23057H13.4727C13.8052 9.23057 14.0795 9.50132 14.0795 9.83562V9.95719ZM17.7088 16.0906C17.7088 16.4222 17.4373 16.6957 17.1021 16.6957H16.0354C15.703 16.6957 15.4287 16.4249 15.4287 16.0906V15.9691C15.4287 15.6375 15.7002 15.364 16.0354 15.364H17.1021C17.4345 15.364 17.7088 15.6348 17.7088 15.9691V16.0906ZM17.7088 13.0239C17.7088 13.3554 17.4373 13.629 17.1021 13.629H16.0354C15.703 13.629 15.4287 13.3582 15.4287 13.0239V12.9023C15.4287 12.5708 15.7002 12.2973 16.0354 12.2973H17.1021C17.4345 12.2973 17.7088 12.568 17.7088 12.9023V13.0239ZM17.7088 9.95719C17.7088 10.2887 17.4373 10.5622 17.1021 10.5622H16.0354C15.703 10.5622 15.4287 10.2915 15.4287 9.95719V9.83562C15.4287 9.50408 15.7002 9.23057 16.0354 9.23057H17.1021C17.4345 9.23057 17.7088 9.50132 17.7088 9.83562V9.95719Z" fill="#000000" stroke="none" stroke-width="1px"></path>
</g></svg>